<svg width="24" height="24" viewBox="0 0 24 24" fill="none" xmlns="http://www.w3.org/2000/svg">
<path opacity="0.35" d="M12 4.5C12 3.119 9.761 2 7 2C4.239 2 2 3.119 2 4.5C2 4.793 2 19.207 2 19.5C2 20.881 4.239 22 7 22C9.761 22 12 20.881 12 19.5C12 19.207 12 4.793 12 4.5Z" fill="white"/>
<path opacity="0.35" d="M22 8.5C22 7.119 19.761 6 17 6C14.239 6 12 7.119 12 8.5C12 8.793 12 17.207 12 17.5C12 18.881 14.239 20 17 20C19.761 20 22 18.881 22 17.5C22 17.207 22 8.793 22 8.5Z" fill="white"/>
<path d="M17 17C14.239 17 12 15.881 12 14.5C12 16.11 12 17.395 12 17.5C12 18.881 14.239 20 17 20C19.761 20 22 18.881 22 17.5C22 17.395 22 16.11 22 14.5C22 15.881 19.761 17 17 17Z" fill="white"/>
<path d="M7 19C4.239 19 2 17.881 2 16.5C2 18.11 2 19.395 2 19.5C2 20.881 4.239 22 7 22C9.761 22 12 20.881 12 19.5C12 19.395 12 18.11 12 16.5C12 17.881 9.761 19 7 19Z" fill="white"/>
<path d="M7 13C4.239 13 2 11.881 2 10.5C2 12.11 2 13.395 2 13.5C2 14.881 4.239 16 7 16C9.761 16 12 14.881 12 13.5C12 13.395 12 12.11 12 10.5C12 11.881 9.761 13 7 13Z" fill="white"/>
<path d="M7 7C4.239 7 2 5.881 2 4.5C2 6.11 2 7.395 2 7.5C2 8.881 4.239 10 7 10C9.761 10 12 8.881 12 7.5C12 7.395 12 6.11 12 4.5C12 5.881 9.761 7 7 7Z" fill="white"/>
<path d="M17 11C14.239 11 12 9.881 12 8.5C12 10.11 12 11.395 12 11.5C12 12.881 14.239 14 17 14C19.761 14 22 12.881 22 11.5C22 11.395 22 10.11 22 8.5C22 9.881 19.761 11 17 11Z" fill="white"/>
</svg>
