<svg width="24" height="24" viewBox="0 0 24 24" fill="none" xmlns="http://www.w3.org/2000/svg">
<path opacity="0.35" d="M3.086 7.52001C3.308 9.17301 4.177 12.972 7.603 16.398C11.029 19.824 14.827 20.693 16.481 20.915C17.679 21.174 18.978 20.845 19.909 19.914C21.365 18.458 16.091 13.184 14.635 14.64L13.706 15.569L8.432 10.295L9.36 9.36601C10.816 7.91001 5.542 2.63601 4.086 4.09201C3.155 5.02301 2.826 6.32201 3.086 7.52001Z" fill="white"/>
<path d="M4.089 4.089L9.362 9.362C10.815 7.905 10.815 5.547 9.359 4.091C7.905 2.637 5.546 2.636 4.089 4.089Z" fill="white"/>
<path d="M14.637 14.637L19.91 19.91C21.363 18.454 21.363 16.095 19.907 14.639C18.452 13.185 16.094 13.184 14.637 14.637Z" fill="white"/>
</svg>
