<svg width="24" height="24" viewBox="0 0 24 24" fill="none" xmlns="http://www.w3.org/2000/svg">
<path opacity="0.35" d="M22.43 11.05L20.583 7.971C20.221 7.369 19.57 7 18.868 7H15C15 5.343 13.657 4 12 4H7V1H3V4H1V16C1 17.657 2.343 19 4 19H15H20C21.657 19 23 17.657 23 16V13.108C23 12.383 22.803 11.672 22.43 11.05Z" fill="white"/>
<path d="M6.5 21C7.88071 21 9 19.8807 9 18.5C9 17.1193 7.88071 16 6.5 16C5.11929 16 4 17.1193 4 18.5C4 19.8807 5.11929 21 6.5 21Z" fill="white"/>
<path d="M17.5 21C18.8807 21 20 19.8807 20 18.5C20 17.1193 18.8807 16 17.5 16C16.1193 16 15 17.1193 15 18.5C15 19.8807 16.1193 21 17.5 21Z" fill="white"/>
<path d="M19.524 13H16C15.448 13 15 12.552 15 12V10C15 9.448 15.448 9 16 9H18.412C18.775 9 19.11 9.197 19.286 9.514L20.398 11.514C20.768 12.181 20.286 13 19.524 13Z" fill="white"/>
<path d="M5 0C2.239 0 0 2.239 0 5C0 7.761 2.239 10 5 10C7.761 10 10 7.761 10 5C10 2.239 7.761 0 5 0ZM5.75 2L5.968 4.619L7.13 6.07C7.391 6.395 7.338 6.87 7.013 7.131C6.732 7.356 6.339 7.347 6.07 7.131L4.293 5.707C4.08 5.537 3.979 5.279 3.998 5.027L4 5L4.25 2C4.285 1.586 4.648 1.278 5.063 1.312C5.434 1.343 5.72 1.64 5.75 2Z" fill="white"/>
</svg>
