<svg width="24" height="24" viewBox="0 0 24 24" fill="none" xmlns="http://www.w3.org/2000/svg">
<path d="M11 17.119C10.201 17.119 9.401 16.815 8.793 16.207C8.203 15.618 7.878 14.834 7.878 14C7.878 13.166 8.203 12.382 8.793 11.793L12.287 8.29899C12.678 7.90799 13.31 7.90799 13.701 8.29899C14.092 8.68999 14.092 9.32199 13.701 9.71299L10.207 13.207C9.995 13.419 9.878 13.7 9.878 14C9.878 14.3 9.995 14.581 10.207 14.793C10.645 15.229 11.355 15.229 11.793 14.793L17.027 9.55999C17.639 8.94799 17.977 8.13299 17.977 7.26699C17.977 6.40099 17.64 5.58599 17.027 4.97399C15.801 3.74899 13.667 3.74899 12.441 4.97399L6.583 10.832C6.192 11.223 5.56 11.223 5.169 10.832C4.778 10.441 4.778 9.80899 5.169 9.41799L11.027 3.55999C12.017 2.56999 13.334 2.02399 14.734 2.02399C16.134 2.02399 17.451 2.56999 18.441 3.55999C19.431 4.54899 19.977 5.86699 19.977 7.26699C19.977 8.66699 19.432 9.98399 18.441 10.974L13.207 16.207C12.599 16.815 11.799 17.119 11 17.119Z" fill="white"/>
<path opacity="0.35" d="M10.375 21.984C8.489 21.984 6.604 21.267 5.168 19.832C3.777 18.441 3.011 16.592 3.011 14.625C3.011 12.657 3.777 10.809 5.168 9.41801C5.559 9.02701 6.191 9.02701 6.582 9.41801C6.973 9.80901 6.973 10.441 6.582 10.832C5.569 11.845 5.011 13.191 5.011 14.625C5.011 16.058 5.569 17.404 6.582 18.418C8.672 20.508 12.076 20.508 14.168 18.418L18.293 14.293C18.684 13.902 19.316 13.902 19.707 14.293C20.098 14.684 20.098 15.316 19.707 15.707L15.582 19.832C14.147 21.268 12.261 21.984 10.375 21.984Z" fill="white"/>
</svg>
