<svg width="24" height="24" viewBox="0 0 24 24" fill="none" xmlns="http://www.w3.org/2000/svg">
<path opacity="0.35" d="M2.269 15.625C0.593999 13.495 0.593999 10.504 2.269 8.374C4.235 5.875 7.479 3 12 3C16.521 3 19.765 5.875 21.731 8.375C23.406 10.505 23.406 13.496 21.731 15.626C19.765 18.125 16.521 21 12 21C7.479 21 4.235 18.125 2.269 15.625Z" fill="white"/>
<path d="M12 6C15.314 6 18 8.686 18 12C18 15.314 15.314 18 12 18C8.686 18 6 15.314 6 12C6 8.686 8.686 6 12 6ZM11 13C12.105 13 13 12.105 13 11C13 9.895 12.105 9 11 9C9.895 9 9 9.895 9 11C9 12.105 9.895 13 11 13Z" fill="white"/>
</svg>
