<svg width="24" height="24" viewBox="0 0 24 24" fill="none" xmlns="http://www.w3.org/2000/svg">
<path d="M4.20827 9.53334C4.4748 9.86667 4.6747 10.2667 4.80796 10.6667C4.94122 11.0667 5.00786 11.5333 5.00786 12C5.00786 12.4667 4.94122 12.9333 4.80796 13.3333C4.6747 13.7333 4.4748 14.1333 4.20827 14.4667C3.87511 14.9333 3.94174 15.6 4.40817 15.9333C4.87459 16.2667 5.54091 16.2 5.87407 15.7333C6.27387 15.2 6.54039 14.6667 6.80692 14C7.07345 13.3333 7.14008 12.6667 7.14008 12C7.14008 11.3333 7.00682 10.6667 6.80692 10C6.60703 9.4 6.27387 8.8 5.87407 8.26667C5.54091 7.8 4.87459 7.73334 4.40817 8.06667C3.94174 8.4 3.87511 9.06667 4.20827 9.53334Z" fill="white"/>
<path d="M7.87303 7.6C8.67262 8.86666 9.13904 10.4 9.13904 12C9.13904 13.6 8.67262 15.1333 7.87303 16.4C7.53987 16.8667 7.73977 17.5333 8.2062 17.8667C8.73925 18.2 9.33894 18 9.6721 17.5333C10.6716 15.9333 11.2713 14.0667 11.2713 12C11.2713 10 10.6716 8.06666 9.6721 6.46666C9.33894 6 8.67262 5.8 8.2062 6.13333C7.73977 6.46666 7.53987 7.06666 7.87303 7.6Z" fill="white"/>
<path d="M11.7377 5.6C12.8704 7.46667 13.4701 9.66667 13.4701 12C13.4701 14.3333 12.8038 16.5333 11.7377 18.4C11.4712 18.9333 11.6044 19.5333 12.1375 19.8667C12.6705 20.1333 13.2702 20 13.6034 19.4667C14.936 17.2667 15.669 14.7333 15.669 12C15.669 9.26667 14.936 6.73333 13.6034 4.53333C13.3369 4 12.6705 3.86667 12.1375 4.13333C11.6044 4.46667 11.4712 5.06667 11.7377 5.6Z" fill="white"/>
<path d="M15.6023 3.6C17.0016 6.06667 17.8678 8.93333 17.8678 12C17.8678 15.0667 17.0682 17.9333 15.6023 20.4C15.3358 20.9333 15.4691 21.5333 16.0021 21.8667C16.5352 22.1333 17.1349 22 17.468 21.4667C19.0672 18.6667 20 15.4667 20 12C20 8.53333 19.0672 5.33333 17.468 2.53333C17.2015 2 16.5352 1.86667 16.0021 2.13333C15.4691 2.4 15.3358 3.06667 15.6023 3.6Z" fill="white"/>
</svg>
