<svg width="24" height="24" viewBox="0 0 24 24" fill="none" xmlns="http://www.w3.org/2000/svg">
<path opacity="0.35" d="M21.283 5.29001L18.179 2.21501C17.742 1.78201 17 2.09201 17 2.70601V4.00001H9C5.686 4.00001 3 6.68601 3 10C3 11.104 3.895 12 5 12C6.105 12 7 11.104 7 10C7 8.89501 7.895 8.00001 9 8.00001H17V9.29401C17 9.90901 17.742 10.218 18.178 9.78501L21.282 6.71001C21.678 6.31901 21.678 5.68101 21.283 5.29001Z" fill="white"/>
<path d="M3.296 18.724L6.4 21.799C6.837 22.231 7.578 21.922 7.578 21.308V20.014H15.578C18.892 20.014 21.578 17.328 21.578 14.014C21.578 12.91 20.683 12.014 19.578 12.014C18.473 12.014 17.578 12.91 17.578 14.014C17.578 15.119 16.683 16.014 15.578 16.014H7.578V14.72C7.578 14.105 6.836 13.796 6.4 14.229L3.296 17.304C2.901 17.694 2.901 18.332 3.296 18.724Z" fill="white"/>
</svg>
