<svg width="24" height="24" viewBox="0 0 24 24" fill="none" xmlns="http://www.w3.org/2000/svg">
<path d="M9 19C9 20.1047 10.343 21 12 21C13.657 21 15 20.1047 15 19H9Z" fill="white"/>
<path opacity="0.35" d="M18.3 10.7037V9.48318C18.3 6.07593 15.6423 3.10515 12.1935 3.00292C8.6259 2.89625 5.7 5.72125 5.7 9.22184V10.7037C5.7 12.0504 5.2581 13.3598 4.44 14.4372L3.405 15.7999C3.1422 16.1457 3 16.567 3 16.9999C3 18.1049 3.9063 19 5.025 19H18.975C20.0937 19 21 18.1049 21 16.9999C21 16.567 20.8578 16.1457 20.595 15.7999L19.56 14.4372C18.7419 13.3598 18.3 12.0495 18.3 10.7037Z" fill="white"/>
<circle cx="19" cy="5" r="4" fill="#FF3649" stroke="white" stroke-width="2"/>
</svg>
