<svg width="24" height="24" viewBox="0 0 24 24" fill="none" xmlns="http://www.w3.org/2000/svg">
<path d="M7.49278 13.0483L12.5265 18.2188C12.7319 18.4299 12.8304 18.6761 12.8218 18.9575C12.8133 19.2388 12.7063 19.4851 12.5008 19.6961C12.2953 19.8896 12.0556 19.9907 11.7817 19.9995C11.5078 20.0083 11.2681 19.9071 11.0626 19.6961L4.2825 12.7318C4.17978 12.6263 4.10701 12.5119 4.06421 12.3888C4.0214 12.2657 4 12.1338 4 11.9931C4 11.8524 4.0214 11.7205 4.06421 11.5974C4.10701 11.4743 4.17978 11.36 4.2825 11.2545L11.0626 4.29018C11.2509 4.09673 11.4864 4 11.7689 4C12.0514 4 12.2953 4.09673 12.5008 4.29018C12.7063 4.50122 12.809 4.75183 12.809 5.04201C12.809 5.33219 12.7063 5.5828 12.5008 5.79384L7.49278 10.9379H18.9727C19.2638 10.9379 19.5078 11.0391 19.7047 11.2413C19.9016 11.4436 20 11.6942 20 11.9931C20 12.2921 19.9016 12.5427 19.7047 12.745C19.5078 12.9472 19.2638 13.0483 18.9727 13.0483H7.49278Z" fill="white"/>
</svg>
