<svg width="24" height="24" viewBox="0 0 24 24" fill="none" xmlns="http://www.w3.org/2000/svg">
<path d="M4.5 21C4.116 21 3.732 20.854 3.439 20.561C2.853 19.976 2.853 19.025 3.439 18.44L18.439 3.43999C19.025 2.85399 19.974 2.85399 20.56 3.43999C21.146 4.02499 21.146 4.97599 20.56 5.56099L5.56 20.561C5.268 20.854 4.884 21 4.5 21Z" fill="white"/>
<path opacity="0.35" d="M17.5 21C19.433 21 21 19.433 21 17.5C21 15.567 19.433 14 17.5 14C15.567 14 14 15.567 14 17.5C14 19.433 15.567 21 17.5 21Z" fill="white"/>
<path opacity="0.35" d="M6.5 10C8.433 10 10 8.433 10 6.5C10 4.567 8.433 3 6.5 3C4.567 3 3 4.567 3 6.5C3 8.433 4.567 10 6.5 10Z" fill="white"/>
</svg>
