<svg width="24" height="24" viewBox="0 0 24 24" fill="none" xmlns="http://www.w3.org/2000/svg">
<path opacity="0.35" d="M6 5H18C19.657 5 21 6.343 21 8V11H3V8C3 6.343 4.343 5 6 5Z" fill="white"/>
<path d="M6 21H18C19.657 21 21 19.657 21 18V11H3V18C3 19.657 4.343 21 6 21Z" fill="white"/>
<path d="M12 3C12 3.414 12 5 12 5C12 5 10.69 5 10 5C8.895 5 8 4.105 8 3C8 1.895 8.895 1 10 1C11.105 1 12 1.895 12 3Z" fill="white"/>
<path d="M12 3C12 3.414 12 5 12 5C12 5 13.31 5 14 5C15.105 5 16 4.105 16 3C16 1.895 15.105 1 14 1C12.895 1 12 1.895 12 3Z" fill="white"/>
</svg>
