<svg width="24" height="24" viewBox="0 0 24 24" fill="none" xmlns="http://www.w3.org/2000/svg">
<path opacity="0.35" d="M12 22C17.5228 22 22 17.5228 22 12C22 6.47715 17.5228 2 12 2C6.47715 2 2 6.47715 2 12C2 17.5228 6.47715 22 12 22Z" fill="white"/>
<path d="M10 10.579V16C10 17.105 10.895 18 12 18C13.105 18 14 17.105 14 16V10.579H10Z" fill="white"/>
<path d="M16.131 12C16.902 12 17.29 11.07 16.747 10.522L12.891 6.629C12.4 6.134 11.6 6.134 11.109 6.629L7.253 10.522C6.71 11.07 7.098 12 7.869 12H16.131Z" fill="white"/>
</svg>
