<svg width="24" height="24" viewBox="0 0 24 24" fill="none" xmlns="http://www.w3.org/2000/svg">
<path opacity="0.35" d="M6 4C6 2.343 7.343 1 9 1H17C18.657 1 20 2.343 20 4V20C20 21.657 18.657 23 17 23H9C7.343 23 6 21.657 6 20V14.31L3 14V7L6 5V4Z" fill="white"/>
<path d="M11 19C11.186 19 14.814 19 15 19C15.552 19 16 19.448 16 20C16 20.552 15.552 21 15 21C14.814 21 11.186 21 11 21C10.448 21 10 20.552 10 20C10 19.448 10.448 19 11 19Z" fill="white"/>
<path d="M0 9.5V14.5C0 15.325 0.675 16 1.5 16H10.5C11.325 16 12 15.325 12 14.5V9.5C12 8.675 11.325 8 10.5 8H1.5C0.675 8 0 8.675 0 9.5ZM4.75 12C4.75 11.31 5.31 10.75 6 10.75C6.69 10.75 7.25 11.31 7.25 12C7.25 12.69 6.69 13.25 6 13.25C5.31 13.25 4.75 12.69 4.75 12Z" fill="white"/>
<path d="M2 8L3 9L4 8C4 6.9 4.9 6 6 6C7.1 6 8 6.9 8 8L9 9L10 8C10 5.79 8.21 4 6 4C3.79 4 2 5.79 2 8Z" fill="white"/>
</svg>
