<svg width="24" height="24" viewBox="0 0 24 24" fill="none" xmlns="http://www.w3.org/2000/svg">
<path d="M9.146 19C9.146 20.59 10.434 21.878 12.024 21.878C13.614 21.878 14.902 20.59 14.902 19H9.146Z" fill="white"/>
<path opacity="0.35" d="M19 11.845V11C19 7.134 15.866 4 12 4C8.134 4 5 7.134 5 11V11.846C5 12.599 4.777 13.335 4.36 13.961L3.387 15.42C3.135 15.798 3 16.243 3 16.697C3 17.969 4.031 19 5.303 19H18.697C19.969 19 21 17.969 21 16.697C21 16.242 20.865 15.798 20.613 15.42L19.64 13.961C19.223 13.334 19 12.598 19 11.845Z" fill="white"/>
<path d="M14 3V4.29C13.37 4.1 12.7 4 12 4C11.3 4 10.63 4.1 10 4.29V3C10 1.9 10.9 1 12 1C13.1 1 14 1.9 14 3Z" fill="white"/>
</svg>
