<svg width="24" height="24" viewBox="0 0 24 24" fill="none" xmlns="http://www.w3.org/2000/svg">
<path opacity="0.35" d="M18.047 21H5.953C4.322 21 3 19.678 3 18.047V5.953C3 4.322 4.322 3 5.953 3H18.047C19.678 3 21 4.322 21 5.953V18.047C21 19.678 19.678 21 18.047 21Z" fill="white"/>
<path d="M21.836 17H2.164C1.521 17 1 16.479 1 15.836V14.164C1 13.521 1.521 13 2.164 13H21.836C22.479 13 23 13.521 23 14.164V15.836C23 16.479 22.479 17 21.836 17Z" fill="white"/>
<path d="M17.5 11C16.672 11 16 10.329 16 9.5V8H14.5C13.672 8 13 7.329 13 6.5C13 5.671 13.672 5 14.5 5H17.5C18.328 5 19 5.671 19 6.5V9.5C19 10.329 18.328 11 17.5 11Z" fill="white"/>
<path d="M6.5 11C5.672 11 5 10.329 5 9.5V6.5C5 5.671 5.672 5 6.5 5H9.5C10.328 5 11 5.671 11 6.5C11 7.329 10.328 8 9.5 8H8V9.5C8 10.329 7.328 11 6.5 11Z" fill="white"/>
</svg>
