<svg width="24" height="24" viewBox="0 0 24 24" fill="none" xmlns="http://www.w3.org/2000/svg">
<path opacity="0.35" d="M12 22C17.5228 22 22 17.5228 22 12C22 6.47715 17.5228 2 12 2C6.47715 2 2 6.47715 2 12C2 17.5228 6.47715 22 12 22Z" fill="white"/>
<path d="M14.902 13.991C14.902 16.151 13.3 17 11.881 17C10.544 17 9.74 16.446 9.275 15.799C8.875 15.24 9.183 14.45 9.849 14.281C10.261 14.176 10.678 14.357 10.923 14.705C11.091 14.943 11.357 15.145 11.785 15.145C12.613 15.145 12.801 14.29 12.801 13.899C12.801 13.026 12.249 12.679 11.487 12.679H11.47C11.029 12.679 10.671 12.321 10.671 11.88C10.671 11.439 11.029 11.081 11.47 11.081H11.541C11.902 11.081 12.666 10.955 12.666 9.874C12.666 9.604 12.556 8.858 11.785 8.858C11.453 8.858 11.237 9.02 11.096 9.214C10.876 9.515 10.514 9.68 10.15 9.59L10.027 9.559C9.431 9.411 9.149 8.709 9.503 8.206C9.927 7.603 10.669 7 11.936 7C13.537 7 14.713 8.046 14.713 9.603C14.713 10.92 14.001 11.618 13.399 11.783V11.824C13.915 11.936 14.902 12.575 14.902 13.991Z" fill="white"/>
</svg>
