<svg width="24" height="24" viewBox="0 0 24 24" fill="none" xmlns="http://www.w3.org/2000/svg">
<path opacity="0.35" d="M12 22C17.5228 22 22 17.5228 22 12C22 6.47715 17.5228 2 12 2C6.47715 2 2 6.47715 2 12C2 17.5228 6.47715 22 12 22Z" fill="white"/>
<path d="M11 16C10.744 16 10.488 15.902 10.293 15.707L7.293 12.707C6.902 12.316 6.902 11.684 7.293 11.293C7.684 10.902 8.316 10.902 8.707 11.293L11 13.586L15.293 9.29301C15.684 8.90201 16.316 8.90201 16.707 9.29301C17.098 9.68401 17.098 10.316 16.707 10.707L11.707 15.707C11.512 15.902 11.256 16 11 16Z" fill="white"/>
</svg>
