<svg width="24" height="24" viewBox="0 0 24 24" fill="none" xmlns="http://www.w3.org/2000/svg">
<g clip-path="url(#clip0_1_535)">
<path opacity="0.35" d="M12 22C17.5228 22 22 17.5228 22 12C22 6.47715 17.5228 2 12 2C6.47715 2 2 6.47715 2 12C2 17.5228 6.47715 22 12 22Z" fill="white"/>
<path d="M15.672 10.135C15.672 12.864 13.464 13.356 12.691 13.356H11.717V15.891C11.717 16.503 11.22 17 10.608 17C9.997 17 9.5 16.503 9.5 15.891V8.319C9.5 7.591 10.091 7 10.819 7H12.608C13.356 7 15.672 7.284 15.672 10.135ZM13.554 10.178C13.554 9.047 12.748 8.906 12.438 8.906H11.718V11.52H12.438C12.748 11.52 13.554 11.309 13.554 10.178Z" fill="white"/>
<path d="M12 12C11.907 12 9.093 12 9 12C8.724 12 8.5 12.224 8.5 12.5C8.5 12.776 8.724 13 9 13C9.093 13 11.907 13 12 13C12.276 13 12.5 12.776 12.5 12.5C12.5 12.224 12.276 12 12 12Z" fill="white"/>
<path d="M14 14C13.907 14 9.093 14 9 14C8.724 14 8.5 14.224 8.5 14.5C8.5 14.776 8.724 15 9 15C9.093 15 13.907 15 14 15C14.276 15 14.5 14.776 14.5 14.5C14.5 14.224 14.276 14 14 14Z" fill="white"/>
</g>
<defs>
<clipPath id="clip0_1_535">
<rect width="24" height="24" fill="white"/>
</clipPath>
</defs>
</svg>
