<svg width="24" height="24" viewBox="0 0 24 24" fill="none" xmlns="http://www.w3.org/2000/svg">
<path opacity="0.35" d="M19 20H5C3.343 20 2 18.657 2 17V7C2 5.343 3.343 4 5 4H19C20.657 4 22 5.343 22 7V17C22 18.657 20.657 20 19 20Z" fill="white"/>
<path d="M17 12H16C14.895 12 14 11.105 14 10V9C14 7.895 14.895 7 16 7H17C18.105 7 19 7.895 19 9V10C19 11.105 18.105 12 17 12Z" fill="white"/>
<path d="M10 9H6C5.448 9 5 8.552 5 8C5 7.448 5.448 7 6 7H10C10.552 7 11 7.448 11 8C11 8.552 10.552 9 10 9Z" fill="white"/>
<path d="M10 13H6C5.448 13 5 12.552 5 12C5 11.448 5.448 11 6 11H10C10.552 11 11 11.448 11 12C11 12.552 10.552 13 10 13Z" fill="white"/>
<path d="M8 17H6C5.448 17 5 16.552 5 16C5 15.448 5.448 15 6 15H8C8.552 15 9 15.448 9 16C9 16.552 8.552 17 8 17Z" fill="white"/>
</svg>
