<svg width="24" height="24" viewBox="0 0 24 24" fill="none" xmlns="http://www.w3.org/2000/svg">
<path opacity="0.35" d="M16.536 4.63601C16.339 4.83201 13.805 7.36701 12 9.17201C10.195 7.36701 7.661 4.83301 7.464 4.63601C6.683 3.85501 5.417 3.85501 4.636 4.63601C3.855 5.41701 3.855 6.68301 4.636 7.46401C4.832 7.66101 7.367 10.195 9.172 12C7.367 13.805 4.833 16.339 4.636 16.536C3.855 17.317 3.855 18.583 4.636 19.364C5.417 20.145 6.683 20.145 7.464 19.364C7.606 19.222 19.222 7.60601 19.364 7.46401C20.145 6.68301 20.145 5.41701 19.364 4.63601C18.583 3.85501 17.317 3.85501 16.536 4.63601Z" fill="white"/>
<path d="M19.364 19.364C20.145 18.583 20.145 17.317 19.364 16.536C19.168 16.34 16.633 13.805 14.828 12L12 14.828C13.805 16.633 16.339 19.167 16.536 19.364C17.317 20.145 18.583 20.145 19.364 19.364Z" fill="white"/>
</svg>
