<svg width="24" height="24" viewBox="0 0 24 24" fill="none" xmlns="http://www.w3.org/2000/svg">
<path d="M12 21C11.447 21 11 20.553 11 20V17C11 16.447 11.447 16 12 16C12.553 16 13 16.447 13 17V20C13 20.553 12.553 21 12 21Z" fill="white"/>
<path opacity="0.35" d="M12 15C11.447 15 11 14.553 11 14V12C11 11.447 11.447 11 12 11C12.553 11 13 11.447 13 12V14C13 14.553 12.553 15 12 15Z" fill="white"/>
<path opacity="0.35" d="M8 21C7.447 21 7 20.553 7 20V14C7 13.447 7.447 13 8 13C8.553 13 9 13.447 9 14V20C9 20.553 8.553 21 8 21Z" fill="white"/>
<path d="M16 15C15.447 15 15 14.553 15 14V12C15 10.346 13.654 9 12 9C10.753 9 9.622 9.785 9.188 10.953C8.995 11.473 8.416 11.731 7.902 11.542C7.384 11.349 7.121 10.773 7.313 10.256C8.038 8.309 9.921 7 12 7C14.757 7 17 9.243 17 12V14C17 14.553 16.553 15 16 15Z" fill="white"/>
<path opacity="0.35" d="M16 21C15.447 21 15 20.553 15 20V17C15 16.447 15.447 16 16 16C16.553 16 17 16.447 17 17V20C17 20.553 16.553 21 16 21Z" fill="white"/>
<path opacity="0.35" d="M4 20C3.447 20 3 19.553 3 19V16C3 15.447 3.447 15 4 15C4.553 15 5 15.447 5 16V19C5 19.553 4.553 20 4 20Z" fill="white"/>
<path d="M4 14C3.447 14 3 13.553 3 13V12C3 7.037 7.037 3 12 3C13.421 3 14.779 3.321 16.039 3.955C16.532 4.203 16.731 4.805 16.483 5.298C16.235 5.792 15.63 5.988 15.14 5.742C14.162 5.25 13.105 5 12 5C8.141 5 5 8.141 5 12V13C5 13.553 4.553 14 4 14Z" fill="white"/>
<path opacity="0.35" d="M20 20C19.447 20 19 19.553 19 19V12C19 10.503 18.534 9.07401 17.652 7.86901C17.327 7.42401 17.423 6.79801 17.869 6.47201C18.316 6.14601 18.94 6.24301 19.267 6.69001C20.4 8.23901 21 10.075 21 12V19C21 19.553 20.553 20 20 20Z" fill="white"/>
</svg>
