<svg width="24" height="24" viewBox="0 0 24 24" fill="none" xmlns="http://www.w3.org/2000/svg">
<path opacity="0.35" d="M4 19V5C4 3.343 5.343 2 7 2H17C18.657 2 20 3.343 20 5V19C20 20.657 18.657 22 17 22H7C5.343 22 4 20.657 4 19Z" fill="white"/>
<path d="M15 13H9C8.447 13 8 12.552 8 12C8 11.448 8.447 11 9 11H15C15.553 11 16 11.448 16 12C16 12.552 15.553 13 15 13Z" fill="white"/>
<path d="M13 17H9C8.447 17 8 16.552 8 16C8 15.448 8.447 15 9 15H13C13.553 15 14 15.448 14 16C14 16.552 13.553 17 13 17Z" fill="white"/>
<path d="M13 9H9C8.447 9 8 8.552 8 8C8 7.448 8.447 7 9 7H13C13.553 7 14 7.448 14 8C14 8.552 13.553 9 13 9Z" fill="white"/>
</svg>
