<svg width="24" height="24" viewBox="0 0 24 24" fill="none" xmlns="http://www.w3.org/2000/svg">
<path opacity="0.35" d="M16.0008 2L8.00058 2C7.44763 2 7.00003 2.45221 7.00073 3.01015L7.00073 7.05072C7.00073 8.6981 7.79269 10.1469 9.00114 11.0692L9.00114 18.9689C9.00114 20.6434 10.3439 22 12.0014 22C13.6588 22 15.0016 20.6434 15.0016 18.9689V11.0692C16.2094 10.1476 17.0021 8.6981 17.0021 7.05072V3.01015C17.0006 2.45149 16.553 1.99929 16.0008 2Z" fill="white"/>
<path d="M11.0007 13.9723V12.3231C11.0007 11.6731 11.4483 11.1469 12.0006 11.1477C12.5535 11.1477 13.0011 11.6739 13.0004 12.3231V13.9723C13.0004 14.6224 12.5528 15.1486 12.0006 15.1477C11.4483 15.1486 11 14.6215 11.0007 13.9723Z" fill="white"/>
<path d="M17.0006 2.99985L17.0006 4.99955L7.00073 4.99955L7.00073 2.99985C7.00073 2.44689 7.44833 1.99929 8.00058 2L16.0008 2C16.553 1.99929 17.0006 2.44689 17.0006 2.99985Z" fill="white"/>
</svg>
