<svg width="24" height="24" viewBox="0 0 24 24" fill="none" xmlns="http://www.w3.org/2000/svg">
<path opacity="0.35" d="M12 22C17.5228 22 22 17.5228 22 12C22 6.47715 17.5228 2 12 2C6.47715 2 2 6.47715 2 12C2 17.5228 6.47715 22 12 22Z" fill="white"/>
<path d="M16 11.1558C16 11.1558 7.348 11.1558 7 11.1558C6.448 11.1558 6 11.6038 6 12.1558C6 12.7078 6.448 13.1558 7 13.1558C7.348 13.1558 16 13.1558 16 13.1558L16 11.1558Z" fill="white"/>
<path d="M11.9998 6.99975C12.2558 6.99975 12.5118 7.09775 12.7068 7.29275L16.7068 11.2928C17.0978 11.6838 17.0978 12.3158 16.7068 12.7068L12.7068 16.7067C12.3158 17.0977 11.6838 17.0977 11.2928 16.7067C10.9018 16.3157 10.9018 15.6838 11.2928 15.2928L14.5858 11.9998L11.2928 8.70675C10.9018 8.31575 10.9018 7.68375 11.2928 7.29275C11.4878 7.09775 11.7438 6.99975 11.9998 6.99975Z" fill="white"/>
</svg>
