<svg xmlns="http://www.w3.org/2000/svg"  viewBox="0 0 32 32" width="32px" height="32px"><title>Map, navigation, pin, home, place, location, area</title><g id="User_Home" data-name="User Home"><path d="M16,1A12.0137,12.0137,0,0,0,4,13c0,6.4175,10.834,17.2515,11.2954,17.71a1,1,0,0,0,1.4092,0C17.166,30.2515,28,19.4175,28,13A12.0137,12.0137,0,0,0,16,1Z" style="fill:#fb5968"/><path d="M20.6,9.2l-4-3a1.0005,1.0005,0,0,0-1.2,0l-4,3a.9983.9983,0,0,0-.4.8v6a1,1,0,0,0,1,1h8a1,1,0,0,0,1-1V10A.9983.9983,0,0,0,20.6,9.2Z" style="fill:#d8304c"/><path d="M16,12a2,2,0,0,0-2,2v3h4V14A2,2,0,0,0,16,12Z" style="fill:#b5183a"/></g></svg>