<svg width="24" height="24" viewBox="0 0 24 24" fill="none" xmlns="http://www.w3.org/2000/svg">
<path opacity="0.35" d="M12 22C17.5228 22 22 17.5228 22 12C22 6.47715 17.5228 2 12 2C6.47715 2 2 6.47715 2 12C2 17.5228 6.47715 22 12 22Z" fill="white"/>
<path d="M11.189 15.891V9.628L10.594 10.077C10.116 10.438 9.429 10.297 9.131 9.777C8.88 9.338 8.999 8.779 9.407 8.48L11.036 7.288C11.291 7.101 11.6 7 11.916 7C12.739 7 13.407 7.667 13.407 8.491V15.891C13.407 16.503 12.91 17 12.298 17C11.686 17 11.189 16.503 11.189 15.891Z" fill="white"/>
</svg>
