<svg width="24" height="24" viewBox="0 0 24 24" fill="none" xmlns="http://www.w3.org/2000/svg">
<g clip-path="url(#clip0_1_494)">
<path opacity="0.35" d="M12 14C13.1046 14 14 13.1046 14 12C14 10.8954 13.1046 10 12 10C10.8954 10 10 10.8954 10 12C10 13.1046 10.8954 14 12 14Z" fill="white"/>
<path opacity="0.35" d="M7.761 17C7.331 17 6.904 16.816 6.607 16.46C4.462 13.883 4.461 10.134 6.604 7.543C7.132 6.905 8.077 6.815 8.716 7.344C9.354 7.872 9.443 8.818 8.915 9.456C7.691 10.934 7.69 13.072 8.912 14.539C9.442 15.176 9.355 16.122 8.719 16.652C8.439 16.886 8.099 17 7.761 17Z" fill="white"/>
<path opacity="0.35" d="M16.239 17C15.901 17 15.561 16.886 15.28 16.653C14.644 16.123 14.557 15.177 15.087 14.54C16.309 13.073 16.308 10.935 15.084 9.457C14.556 8.818 14.645 7.873 15.283 7.345C15.922 6.817 16.867 6.906 17.395 7.544C19.538 10.134 19.537 13.884 17.392 16.461C17.096 16.816 16.669 17 16.239 17Z" fill="white"/>
<path d="M20.239 20C19.913 20 19.584 19.894 19.309 19.676C18.66 19.162 18.55 18.218 19.064 17.569C21.661 14.29 21.661 9.71 19.064 6.431C18.549 5.782 18.659 4.838 19.309 4.324C19.957 3.809 20.902 3.919 21.416 4.569C24.882 8.944 24.882 15.056 21.416 19.431C21.12 19.805 20.682 20 20.239 20Z" fill="white"/>
<path d="M3.761 20C3.319 20 2.88 19.805 2.584 19.431C-0.882003 15.056 -0.882003 8.944 2.584 4.569C3.099 3.919 4.042 3.81 4.691 4.324C5.34 4.838 5.45 5.782 4.936 6.431C2.339 9.71 2.339 14.29 4.936 17.569C5.451 18.218 5.341 19.162 4.691 19.676C4.416 19.894 4.087 20 3.761 20Z" fill="white"/>
<path d="M21 22C20.744 22 20.488 21.902 20.293 21.707L2.293 3.707C1.902 3.316 1.902 2.684 2.293 2.293C2.684 1.902 3.316 1.902 3.707 2.293L21.707 20.293C22.098 20.684 22.098 21.316 21.707 21.707C21.512 21.902 21.256 22 21 22Z" fill="white"/>
</g>
<defs>
<clipPath id="clip0_1_494">
<rect width="24" height="24" fill="white"/>
</clipPath>
</defs>
</svg>
