<svg width="24" height="24" viewBox="0 0 24 24" fill="none" xmlns="http://www.w3.org/2000/svg">
<path opacity="0.35" d="M22.5 6C22.5 3.515 20.485 1.5 18 1.5C16.237 1.5 14.727 2.524 13.988 4H4C2.343 4 1 5.343 1 7V20V20.828C1 22.574 2.974 23.59 4.395 22.575L7.218 20.559C7.727 20.195 8.336 20 8.961 20H18C19.657 20 21 18.657 21 17V9.332C21.914 8.508 22.5 7.328 22.5 6Z" fill="white"/>
<path d="M18 1C15.24 1 13 3.24 13 6C13 8.76 15.24 11 18 11C20.76 11 23 8.76 23 6C23 3.24 20.76 1 18 1ZM18.93 8.7C18.93 9.13 18.59 9.47 18.16 9.47C17.73 9.47 17.39 9.13 17.39 8.7V4.35L16.98 4.66C16.64 4.92 16.17 4.82 15.96 4.46C15.9 4.35 15.87 4.23 15.87 4.11C15.87 3.9 15.97 3.69 16.15 3.56L17.28 2.73C17.46 2.6 17.68 2.53 17.9 2.53C18.47 2.53 18.93 2.99 18.93 3.56V8.7Z" fill="white"/>
</svg>
