<svg width="24" height="24" viewBox="0 0 24 24" fill="none" xmlns="http://www.w3.org/2000/svg">
<path opacity="0.35" d="M18 21H6C4.343 21 3 19.657 3 18V6C3 4.343 4.343 3 6 3H18C19.657 3 21 4.343 21 6V18C21 19.657 19.657 21 18 21Z" fill="white"/>
<path d="M14 13.421V3.421C14 2.316 13.105 1.421 12 1.421C10.895 1.421 10 2.316 10 3.421V13.421H14Z" fill="white"/>
<path d="M7.869 12C7.098 12 6.71 12.93 7.253 13.478L11.109 17.371C11.6 17.866 12.4 17.866 12.891 17.371L16.747 13.478C17.29 12.93 16.902 12 16.131 12H7.869Z" fill="white"/>
</svg>
