<svg width="146" height="139" viewBox="0 0 146 139" fill="none" xmlns="http://www.w3.org/2000/svg">
<g clip-path="url(#clip0_24_1716)">
<path d="M139.316 29.2893C137.084 27.1641 135.715 24.4801 135.253 21.6948C134.261 15.7419 129.353 11.1585 123.213 10.232C120.19 9.77739 117.398 8.42236 115.236 6.36374C110.759 2.10175 103.959 1.14049 98.4179 3.8274C95.6079 5.19112 92.5028 5.60226 89.5772 5.16216C82.0472 4.02428 77.6253 7.75063 73.8756 13.5385C16.7122 80.5687 28.2474 67.0366 5.74997 93.4219C0.980788 99.0152 1.42237 107.131 6.77181 112.224L28.124 132.553C33.4734 137.646 41.9979 138.066 47.8734 133.526L131.78 68.6664C138.029 64.998 141.743 60.7128 140.578 53.7176C140.085 50.7498 140.636 47.811 141.98 45.3008C144.854 39.9269 143.71 33.4731 139.316 29.2893Z" fill="#FFEBD2"/>
<path d="M139.316 29.2893C137.084 27.1641 135.715 24.4801 135.253 21.6948C134.261 15.7419 129.353 11.1585 123.213 10.232C120.19 9.77739 117.398 8.42236 115.236 6.36374C110.759 2.10175 103.959 1.14049 98.4179 3.8274C95.6079 5.19112 92.5028 5.60226 89.5772 5.16216C82.0472 4.02428 77.6253 7.75063 73.8756 13.5385C68.9534 22.5495 66.2279 32.0732 66.4885 41.9479C66.7896 53.2138 70.883 60.6636 74.6267 67.9513C82.2814 71.5155 90.1064 75.4155 101.94 75.6993C112.311 75.9474 122.314 73.3532 131.78 68.6664C138.029 64.998 141.743 60.7128 140.578 53.7176C140.085 50.7498 140.636 47.811 141.98 45.3007C144.854 39.9269 143.71 33.4731 139.316 29.2893Z" fill="#DAFFBF"/>
<path d="M113.898 50.5182C117.723 54.1606 118.718 59.7776 116.215 64.4537C115.008 66.712 114.582 69.2773 114.998 71.7818C115.154 72.7142 115.187 73.6262 115.123 74.4977C111.078 75.3287 106.66 75.8122 101.94 75.6993C90.1064 75.4155 82.2814 71.5155 74.6267 67.9513C70.883 60.6636 66.7896 53.2138 66.4885 41.9479C66.3699 37.4543 66.8778 33.2473 67.7506 29.3965C69.2834 29.2951 70.5239 29.5018 70.6032 29.5152C73.2266 29.9529 75.9284 29.5065 78.3005 28.357C83.1208 26.0176 89.0389 26.8543 92.9377 30.5633C94.8202 32.3555 97.2501 33.5339 99.8807 33.9306C105.224 34.7384 109.497 38.7254 110.361 43.9081C110.774 46.3923 112 48.7115 113.898 50.5182Z" fill="#FFBD7B"/>
<path d="M141.98 45.3007C140.636 47.811 140.085 50.7498 140.578 53.7176C141.743 60.7128 138.029 64.998 131.78 68.6664C127.458 70.8061 121.799 73.1253 115.123 74.4977C115.187 73.6262 115.154 72.7142 114.998 71.7818C114.582 69.2774 115.008 66.712 116.215 64.4537C118.718 59.7776 117.723 54.1606 113.898 50.5182C112.02 48.7309 110.82 46.5197 110.343 43.8038C110.021 41.9728 111.101 40.2087 112.923 39.5482C121.452 36.4574 126.195 28.0918 126.162 19.1072C126.148 15.1752 131.706 13.8162 133.677 17.2712C134.447 18.6196 134.988 20.1084 135.253 21.6945C135.715 24.4798 137.084 27.1638 139.316 29.289C143.71 33.4731 144.854 39.9269 141.98 45.3007Z" fill="#BEFA91"/>
<path d="M120.071 58.3826C124.981 58.3826 128.961 54.5933 128.961 49.9189C128.961 45.2445 124.981 41.4551 120.071 41.4551C115.161 41.4551 111.181 45.2445 111.181 49.9189C111.181 54.5933 115.161 58.3826 120.071 58.3826Z" fill="#FF6D7A"/>
<path d="M125.352 46.0753C120.181 45.8199 115.765 50.0419 116.037 54.9519C116.099 56.0866 114.662 56.7311 113.814 55.9311C110.307 52.622 110.307 47.2421 113.785 43.9341C117.265 40.6178 122.914 40.6293 126.383 43.9587C127.224 44.7663 126.545 46.1343 125.352 46.0753Z" fill="#FF8C95"/>
<path d="M95.1334 34.9301C100.043 34.9301 104.023 31.1407 104.023 26.4663C104.023 21.7919 100.043 18.0026 95.1334 18.0026C90.2236 18.0026 86.2435 21.7919 86.2435 26.4663C86.2435 31.1407 90.2236 34.9301 95.1334 34.9301Z" fill="#FF6D7A"/>
<path d="M100.414 22.6227C95.2435 22.3674 90.8277 26.5894 91.099 31.4994C91.1617 32.6341 89.7241 33.2786 88.8765 32.4786C85.3694 29.1695 85.3697 23.7896 88.8473 20.4816C92.3276 17.1652 97.9763 17.1768 101.445 20.5062C102.287 21.3137 101.607 22.6818 100.414 22.6227Z" fill="#FF8C95"/>
<path d="M104.71 43.849C96.7261 37.9757 78.8911 42.8133 79.2004 55.8862C79.2004 57.7286 79.4963 61.0241 80.1206 64.0315C80.7213 66.9257 77.6117 69.3416 74.6264 67.9513C70.8827 60.6636 66.7893 53.2138 66.4882 41.9479C66.3696 37.4543 66.8775 33.2473 67.7503 29.3965C69.2831 29.2951 70.5239 29.5007 70.6029 29.5152C73.2336 29.9118 75.9281 29.5065 78.3002 28.357C83.1205 26.0176 89.0386 26.8543 92.9374 30.5633C94.8199 32.3555 97.2498 33.5339 99.8804 33.9306C103.946 34.5453 107.392 37.0003 109.188 40.4223C110.072 42.106 108.97 44.1238 107.018 44.4261C106.208 44.5517 105.376 44.3392 104.71 43.849Z" fill="#FFD3A6"/>
<path d="M5.74997 93.4219C0.980788 99.0152 1.42237 107.131 6.77181 112.224C29.5917 133.95 28.2249 132.657 28.5461 132.939C32.0955 136.064 37.0748 131.083 33.7778 127.803C22.3415 116.427 21.0493 98.9477 31.4754 86.7228L35.0247 82.5613C40.9903 75.5652 48.8673 70.7676 57.1865 68.4768C60.6455 67.5242 60.4448 62.5908 56.4438 62.1982C52.1381 61.7766 48.3187 62.2314 49.2727 62.1518L63.919 44.9785C65.4938 43.1321 66.4131 40.8555 66.5229 38.4795C66.9304 29.6738 69.5692 21.4223 73.8759 13.5385C16.7122 80.5687 28.2474 67.0366 5.74997 93.4219Z" fill="#FFF3E4"/>
<path d="M74.6267 67.9513C68.9853 65.3252 63.4382 62.8844 56.4435 62.1982C50.2057 61.5872 42.4361 62.3394 33.107 66.5568C31.3607 67.3461 29.7002 65.3376 30.9185 63.9087C32.7183 61.798 32.8135 61.5823 33.4275 61.2893C43.2961 56.5776 51.4672 55.7342 57.9732 56.3701C62.2807 56.7928 66.0366 57.8803 69.606 59.2686C70.2058 59.502 70.6826 59.9502 70.9384 60.5168C72.1059 63.1015 73.3847 65.5368 74.6267 67.9513Z" fill="#FFDFBA"/>
<path d="M141.036 27.6508C139.225 25.9263 138.056 23.7418 137.655 21.3331C136.505 14.4204 130.854 9.04022 123.593 7.94519C121.063 7.56358 118.768 6.4506 116.957 4.72611C111.759 -0.223242 103.865 -1.41324 97.315 1.76414C95.0326 2.87133 92.4884 3.25497 89.959 2.87336C87.1684 2.45266 84.5691 2.61017 82.2332 3.34125C80.9568 3.74082 80.2622 5.04982 80.6819 6.265C81.1016 7.48048 82.4765 8.1415 83.7532 7.74193C85.3699 7.23582 87.1508 7.14028 89.1978 7.44863C92.749 7.98399 96.32 7.44574 99.5242 5.8915C104.19 3.6279 109.813 4.47595 113.516 8.00136C116.059 10.4222 119.28 11.9848 122.832 12.5205C128.004 13.3005 132.03 17.1331 132.849 22.0572C133.412 25.4385 135.053 28.5055 137.596 30.9261C141.299 34.4518 142.189 39.805 139.812 44.2474C138.179 47.2974 137.613 50.6971 138.176 54.0786C139.046 59.3054 136.843 62.9518 130.581 66.648C126.208 68.808 121.813 70.4482 117.421 71.5737C117.093 69.4571 117.318 67.4973 118.384 65.5058C119.209 63.9649 119.717 62.3363 119.924 60.6931C126.214 60.7681 131.394 55.9554 131.394 49.9174C131.394 44.5022 127.229 40.0726 121.83 39.2676C120.501 39.0696 119.258 39.9339 119.049 41.1977C118.841 42.4615 119.749 43.6466 121.077 43.8444C124.165 44.3047 126.527 46.8422 126.527 49.9174C126.527 53.4643 123.398 56.2487 119.706 56.0524C119.119 53.4014 117.739 50.8998 115.618 48.8797C114.088 47.4239 113.101 45.5796 112.763 43.5459C112.54 42.2041 112.12 40.9035 111.514 39.6799C110.941 38.523 109.492 38.0264 108.276 38.5719C107.061 39.1171 106.54 40.4973 107.113 41.6546C107.522 42.4815 107.806 43.3617 107.957 44.2706C108.457 47.2771 109.917 50.0037 112.177 52.1555C115.303 55.1323 116.055 59.652 114.048 63.4026C112.596 66.1147 112.094 69.1372 112.594 72.1435C112.619 72.294 112.638 72.4455 112.655 72.5969C109.091 73.2046 105.536 73.4687 102.002 73.383C78.8137 72.8239 70.2144 56.9291 46.8104 60.0912C45.4799 60.271 44.5547 61.4433 44.7433 62.7101C44.9325 63.9768 46.1644 64.8575 47.494 64.678C69.355 61.7245 77.725 78.0318 103.304 78.0318C108.406 78.0318 113.48 77.3485 118.206 76.1747L46.339 131.727C41.4178 135.531 34.3263 135.182 29.8436 130.914L8.49267 110.587C4.01027 106.32 3.64319 99.5682 7.63901 94.8829L65.9991 26.4495C63.283 36.354 63.2711 46.6083 66.6964 56.4404C67.1173 57.6486 68.4901 58.3143 69.7713 57.9098C71.0468 57.5071 71.7378 56.1963 71.3147 54.982C68.6403 47.3043 68.3037 39.415 69.7482 31.7414C70.0654 31.7735 70.1582 31.7947 70.2233 31.8042C70.5885 31.8042 74.6862 32.7088 79.404 30.42C83.3435 28.5087 88.0908 29.225 91.2175 32.2015C93.3487 34.2303 96.039 35.5905 98.9977 36.1351C99.5576 36.2385 100.122 36.1467 100.598 35.9058C101.401 35.4996 102.331 34.8586 103.14 34.0881C107.565 29.875 107.565 23.0562 103.14 18.8428C99.5278 15.404 93.9153 14.694 89.4919 17.1163C88.3271 17.7541 87.926 19.17 88.5957 20.2789C89.2656 21.3881 90.7528 21.7697 91.9176 21.1322C94.439 19.7517 97.6389 20.1573 99.6987 22.1186C102.473 24.7598 102.155 29.117 99.0199 31.3754C97.375 30.9226 95.8799 30.0887 94.6583 28.9257C90.0366 24.5256 83.0191 23.4673 77.1952 26.2923C75.2655 27.2284 73.1039 27.5683 70.823 27.2049C73.0388 19.3692 75.9702 15.0962 76.2333 14.1005C76.722 12.2312 74.7157 10.611 72.8435 11.4443C72.0528 11.796 76.2989 7.02069 3.86155 91.9629C-1.71051 98.4969 -1.19868 107.912 5.05248 113.863L26.4034 134.19C32.6227 140.111 42.5102 140.655 49.4066 135.324L133.196 70.5554C138.589 67.367 144.508 62.5268 142.982 53.3542C142.582 50.9453 142.985 48.5236 144.148 46.3506C147.485 40.1148 146.234 32.5999 141.036 27.6508Z" fill="black"/>
<path d="M95.6085 51.5568C92.7391 49.114 89.9075 50.0868 88.6417 48.975C87.3596 47.849 87.9672 45.3691 85.2332 43.1304C83.5845 41.7808 81.408 41.1045 78.7643 41.1227C77.4207 41.1317 76.3389 42.1758 76.348 43.4549C76.3575 44.7506 77.4797 45.7718 78.7977 45.7553C80.2322 45.7475 81.3295 46.0446 82.0606 46.643C82.6035 47.0875 82.7488 47.516 83.0262 48.4434C83.3519 49.5323 83.798 51.0238 85.3424 52.3802C86.9919 53.8288 88.7597 54.0639 90.0507 54.2356C91.175 54.385 91.7428 54.4805 92.365 55.0101C93.0274 55.5738 93.4885 56.4213 93.7357 57.5291C94.0143 58.7767 95.3031 59.5799 96.6215 59.3132C97.9356 59.0471 98.7747 57.8172 98.4955 56.5658C98.0287 54.4753 97.0576 52.7902 95.6085 51.5568Z" fill="black"/>
<path d="M36.7062 109.037C35.914 107.893 34.1358 107.597 32.9625 108.683C32.0216 109.579 32.0082 111.052 32.9625 111.961C33.9089 112.862 35.4581 112.864 36.4051 111.961C37.2089 111.196 37.3622 109.963 36.7062 109.037Z" fill="black"/>
<path d="M45.1576 117.083C43.9156 116.285 42.1627 116.747 41.5599 118.122C40.7303 120.016 42.7484 121.937 44.738 121.148C46.5508 120.429 46.757 118.087 45.1576 117.083Z" fill="black"/>
<path d="M47.1527 110.322C48.496 110.322 49.5856 109.285 49.5856 108.006C49.5856 106.518 48.149 105.45 46.6782 105.736C45.3109 105.991 44.5008 107.275 44.7684 108.458C44.9989 109.576 46.032 110.322 47.1527 110.322Z" fill="black"/>
</g>
<defs>
<clipPath id="clip0_24_1716">
<rect width="146" height="139" fill="white"/>
</clipPath>
</defs>
</svg>
