<svg width="24" height="24" viewBox="0 0 24 24" fill="none" xmlns="http://www.w3.org/2000/svg">
<path opacity="0.35" d="M12 22C17.5228 22 22 17.5228 22 12C22 6.47715 17.5228 2 12 2C6.47715 2 2 6.47715 2 12C2 17.5228 6.47715 22 12 22Z" fill="white"/>
<path d="M14.96 9.905C14.96 11.637 13.778 12.595 11.669 15.091H13.882C14.409 15.091 14.836 15.518 14.836 16.045C14.836 16.572 14.409 16.999 13.882 16.999H10.474C9.682 16.999 9.041 16.357 9.041 15.566C9.041 15.224 9.164 14.891 9.387 14.631C11.813 11.815 12.789 11.005 12.789 9.931C12.789 9.646 12.73 8.894 11.96 8.894C11.52 8.894 11.274 9.174 11.137 9.491C10.964 9.892 10.543 10.126 10.108 10.085C9.418 10.021 8.962 9.297 9.249 8.666C9.637 7.813 10.426 7 12.028 7C14.374 7 14.96 8.756 14.96 9.905Z" fill="white"/>
</svg>
