<svg width="24" height="24" viewBox="0 0 24 24" fill="none" xmlns="http://www.w3.org/2000/svg">
<path opacity="0.35" d="M14.5 2C10.358 2 7 5.358 7 9.5C7 13.642 10.358 17 14.5 17C18.642 17 22 13.642 22 9.5C22 5.358 18.642 2 14.5 2ZM17 9C15.895 9 15 8.105 15 7C15 5.895 15.895 5 17 5C18.105 5 19 5.895 19 7C19 8.105 18.105 9 17 9Z" fill="white"/>
<path d="M7.587 12.413L2.293 17.707C2.105 17.895 2 18.149 2 18.414V21C2 21.552 2.448 22 3 22H5.586C5.851 22 6.106 21.895 6.293 21.707L7.586 20.414C7.851 20.149 8 19.789 8 19.414C8 18.633 8.633 18 9.414 18C9.789 18 10.149 17.851 10.414 17.586L11.587 16.413C9.787 15.654 8.346 14.212 7.587 12.413Z" fill="white"/>
</svg>
