<svg width="24" height="24" viewBox="0 0 24 24" fill="none" xmlns="http://www.w3.org/2000/svg">
<path opacity="0.35" d="M12 22C17.5228 22 22 17.5228 22 12C22 6.47715 17.5228 2 12 2C6.47715 2 2 6.47715 2 12C2 17.5228 6.47715 22 12 22Z" fill="white"/>
<path d="M14.323 14.994V15.997C14.323 16.551 13.874 17 13.32 17C12.766 17 12.317 16.551 12.317 15.997V14.994H10.224C9.36 14.994 8.66 14.294 8.66 13.43C8.66 13.195 8.713 12.963 8.815 12.752L11.124 7.954C11.404 7.37 11.994 7 12.641 7C13.57 7 14.324 7.753 14.324 8.683V13.13H14.408C14.923 13.13 15.34 13.547 15.34 14.062C15.34 14.577 14.923 14.994 14.408 14.994H14.323ZM12.361 9.204H12.332L10.623 13.13H12.361V9.204Z" fill="white"/>
</svg>
