<svg width="24" height="24" viewBox="0 0 24 24" fill="none" xmlns="http://www.w3.org/2000/svg">
<path opacity="0.35" d="M19 5H5C3.895 5 3 5.895 3 7V19C3 20.657 4.343 22 6 22H18C19.657 22 21 20.657 21 19V7C21 5.895 20.105 5 19 5Z" fill="white"/>
<path d="M15.5 11C16.3284 11 17 10.3284 17 9.5C17 8.67157 16.3284 8 15.5 8C14.6716 8 14 8.67157 14 9.5C14 10.3284 14.6716 11 15.5 11Z" fill="white"/>
<path d="M8.5 11C9.32843 11 10 10.3284 10 9.5C10 8.67157 9.32843 8 8.5 8C7.67157 8 7 8.67157 7 9.5C7 10.3284 7.67157 11 8.5 11Z" fill="white"/>
<path d="M5.347 4.99999H11.837L9.439 2.57899C8.972 2.10799 8.211 2.10799 7.745 2.57899L5.347 4.99999Z" fill="white"/>
<path d="M9.347 4.99999H18L14.294 1.25899C13.952 0.913994 13.395 0.913994 13.053 1.25899L9.347 4.99999Z" fill="white"/>
</svg>
