<svg width="24" height="24" viewBox="0 0 24 24" fill="none" xmlns="http://www.w3.org/2000/svg">
<path opacity="0.35" d="M17.493 9.082L11 8V5C11 3.896 10.104 3 9 3C7.896 3 7 3.896 7 5V13.064L6.814 12.878C5.642 11.706 3.743 11.706 2.571 12.878L2.292 13.157C1.901 13.548 1.901 14.181 2.292 14.571L7.933 20.212L8.074 20.071C8.682 20.643 9.494 21 10.395 21H17.73C18.984 21 20 19.984 20 18.73V12.041C20 10.574 18.94 9.323 17.493 9.082Z" fill="white"/>
<path d="M19.5 19C19.114 19 7.886 19 7.5 19C6.672 19 6 19.672 6 20.5C6 21.328 6.672 22 7.5 22C7.886 22 19.114 22 19.5 22C20.328 22 21 21.328 21 20.5C21 19.672 20.328 19 19.5 19Z" fill="white"/>
<path d="M7 8.445V5C7 3.896 7.896 3 9 3C10.104 3 11 3.896 11 5V8L11.516 8.086C12.415 7.352 13 6.25 13 5C13 2.791 11.209 1 9 1C6.791 1 5 2.791 5 5C5 6.477 5.809 7.752 7 8.445Z" fill="white"/>
</svg>
