<svg width="24" height="24" viewBox="0 0 24 24" fill="none" xmlns="http://www.w3.org/2000/svg">
<path opacity="0.35" d="M20 4H7.07C5.73 4 4.486 4.666 3.742 5.781L0.336 10.89C-0.112 11.562 -0.112 12.437 0.336 13.109L3.742 18.218C4.486 19.334 5.73 20 7.07 20H20C21.654 20 23 18.654 23 17V7C23 5.346 21.654 4 20 4Z" fill="white"/>
<path d="M15.812 16.215L8.785 9.18801C8.401 8.80401 8.401 8.18001 8.785 7.79601L8.796 7.78501C9.18 7.40101 9.804 7.40101 10.188 7.78501L17.215 14.812C17.599 15.196 17.599 15.82 17.215 16.204L17.204 16.215C16.82 16.599 16.196 16.599 15.812 16.215Z" fill="white"/>
<path d="M8.785 14.812L15.812 7.78501C16.196 7.40101 16.82 7.40101 17.204 7.78501L17.215 7.79601C17.599 8.18001 17.599 8.80401 17.215 9.18801L10.188 16.215C9.804 16.599 9.18 16.599 8.796 16.215L8.785 16.204C8.401 15.82 8.401 15.196 8.785 14.812Z" fill="white"/>
</svg>
