<svg width="24" height="24" viewBox="0 0 24 24" fill="none" xmlns="http://www.w3.org/2000/svg">
<path opacity="0.35" d="M20 14C20 18.418 16.418 22 12 22C7.582 22 4 18.418 4 14C4 10.436 8.064 5.348 10.399 2.72C11.25 1.762 12.75 1.762 13.601 2.72C14.104 3.427 14.452 4.985 14.676 6.371C14.82 7.265 15.992 7.513 16.494 6.759C16.733 6.401 17.266 6.413 17.478 6.788C18.734 9.005 20 12.35 20 14Z" fill="white"/>
<path d="M9.00001 18C8.74401 18 8.48801 17.902 8.29301 17.707C7.90201 17.316 7.90201 16.684 8.29301 16.293L14.293 10.293C14.684 9.90201 15.316 9.90201 15.707 10.293C16.098 10.684 16.098 11.316 15.707 11.707L9.70701 17.707C9.51201 17.902 9.25601 18 9.00001 18Z" fill="white"/>
<path d="M15.5 18C16.3284 18 17 17.3284 17 16.5C17 15.6716 16.3284 15 15.5 15C14.6716 15 14 15.6716 14 16.5C14 17.3284 14.6716 18 15.5 18Z" fill="white"/>
<path d="M8.5 13C9.32843 13 10 12.3284 10 11.5C10 10.6716 9.32843 10 8.5 10C7.67157 10 7 10.6716 7 11.5C7 12.3284 7.67157 13 8.5 13Z" fill="white"/>
</svg>
