<svg width="24" height="24" viewBox="0 0 24 24" fill="none" xmlns="http://www.w3.org/2000/svg">
<path opacity="0.35" d="M12 22C17.5228 22 22 17.5228 22 12C22 6.47715 17.5228 2 12 2C6.47715 2 2 6.47715 2 12C2 17.5228 6.47715 22 12 22Z" fill="white"/>
<path d="M13.42 16.489C13.42 16.914 13.173 18 11.993 18C10.813 18 10.581 16.914 10.581 16.489C10.581 16.074 10.844 14.96 11.993 14.96C13.142 14.96 13.42 16.074 13.42 16.489ZM10.698 12.499V7.259C10.698 6.54 11.281 5.957 12 5.957C12.719 5.957 13.302 6.54 13.302 7.259V12.5C13.302 13.219 12.719 13.802 12 13.802C11.281 13.801 10.698 13.218 10.698 12.499Z" fill="white"/>
</svg>
