<svg width="24" height="24" viewBox="0 0 24 24" fill="none" xmlns="http://www.w3.org/2000/svg">
<path opacity="0.35" d="M19 4H5C3.34315 4 2 5.34315 2 7V17C2 18.6569 3.34315 20 5 20H19C20.6569 20 22 18.6569 22 17V7C22 5.34315 20.6569 4 19 4Z" fill="white"/>
<path d="M17 10C18.1046 10 19 9.10457 19 8C19 6.89543 18.1046 6 17 6C15.8954 6 15 6.89543 15 8C15 9.10457 15.8954 10 17 10Z" fill="white"/>
<path d="M4 16C4 16.2652 4.10536 16.5196 4.29289 16.7071C4.48043 16.8946 4.73478 17 5 17H19C19.2652 17 19.5196 16.8946 19.7071 16.7071C19.8946 16.5196 20 16.2652 20 16C20 14.636 18.312 13 17.5 13C16.688 13 15.952 14 14 14C11.558 14 10 9 8 9C6 9 4 13.362 4 16Z" fill="white"/>
</svg>
