<svg width="24" height="24" viewBox="0 0 24 24" fill="none" xmlns="http://www.w3.org/2000/svg">
<path opacity="0.35" d="M12 3.062V12L5.68 5.67999C5.26 5.25999 4.561 5.291 4.19 5.754C2.64 7.689 1.795 10.213 2.043 12.936C2.466 17.593 6.214 21.423 10.862 21.937C16.894 22.603 22 17.898 22 12C22 6.857 18.117 2.621 13.123 2.062C12.527 1.996 12 2.462 12 3.062Z" fill="white"/>
<path d="M10.586 13.414C10.144 12.972 8.393 10.316 6.955 8.09201C6.473 7.34701 7.347 6.47301 8.092 6.95401C10.316 8.39201 12.972 10.144 13.414 10.585C14.195 11.366 14.195 12.632 13.414 13.413C12.633 14.195 11.367 14.195 10.586 13.414Z" fill="white"/>
</svg>
