<svg width="24" height="24" viewBox="0 0 24 24" fill="none" xmlns="http://www.w3.org/2000/svg">
<path opacity="0.35" d="M15.5 4C16.3284 4 17 3.32843 17 2.5C17 1.67157 16.3284 1 15.5 1C14.6716 1 14 1.67157 14 2.5C14 3.32843 14.6716 4 15.5 4Z" fill="white"/>
<path opacity="0.35" d="M18 7H10.95C10.982 6.838 11 6.671 11 6.5C11 5.119 9.881 4 8.5 4C7.119 4 6 5.119 6 6.5C6 6.671 6.018 6.838 6.05 7H6C4.343 7 3 8.343 3 10V19C3 20.657 4.343 22 6 22H18C19.657 22 21 20.657 21 19V10C21 8.343 19.657 7 18 7Z" fill="white"/>
<path d="M17.5 15C18.3284 15 19 14.3284 19 13.5C19 12.6716 18.3284 12 17.5 12C16.6716 12 16 12.6716 16 13.5C16 14.3284 16.6716 15 17.5 15Z" fill="white"/>
<path d="M15.5 1C14.119 1 13 2.119 13 3.5C13 4.881 14.119 6 15.5 6C16.881 6 18 4.881 18 3.5C18 2.119 16.881 1 15.5 1ZM15.817 4.429C15.817 4.577 15.697 4.697 15.549 4.697C15.401 4.697 15.281 4.577 15.281 4.429V2.916L15.137 3.025C15.022 3.112 14.855 3.078 14.784 2.952C14.723 2.846 14.752 2.711 14.851 2.639L15.245 2.351C15.307 2.306 15.381 2.281 15.458 2.281C15.657 2.281 15.818 2.442 15.818 2.641L15.817 4.429Z" fill="white"/>
<path d="M6 7H8.769C8.769 6.998 8.77 6.997 8.77 6.995C8.77 6.65 8.417 6.494 8.283 6.494C8.173 6.494 8.063 6.51 7.965 6.532C7.792 6.569 7.631 6.427 7.637 6.25L7.678 5.124C7.685 4.919 7.854 4.758 8.058 4.758H9.047C9.226 4.758 9.372 4.903 9.372 5.083C9.372 5.262 9.227 5.408 9.047 5.408H8.32L8.297 5.979C8.335 5.963 8.378 5.951 8.426 5.941C8.474 5.931 8.516 5.927 8.55 5.927C9.321 5.927 9.491 6.653 9.489 6.972C9.489 6.981 9.487 6.991 9.487 7H11.949C11.973 6.835 12 6.671 12 6.5C12 4.567 10.433 3 8.5 3C6.567 3 5 4.567 5 6.5C5 6.727 5.026 6.948 5.067 7.163C5.362 7.066 5.672 7 6 7Z" fill="white"/>
</svg>
