<svg width="24" height="24" viewBox="0 0 24 24" fill="none" xmlns="http://www.w3.org/2000/svg">
<path opacity="0.35" d="M12 22C17.5228 22 22 17.5228 22 12C22 6.47715 17.5228 2 12 2C6.47715 2 2 6.47715 2 12C2 17.5228 6.47715 22 12 22Z" fill="white"/>
<path d="M13.25 17C12.866 17 12.482 16.854 12.189 16.561L8.689 13.061C8.103 12.476 8.103 11.525 8.689 10.94L12.189 7.43999C12.775 6.85399 13.724 6.85399 14.31 7.43999C14.896 8.02499 14.896 8.97599 14.31 9.56099L11.871 12L14.31 14.439C14.896 15.024 14.896 15.975 14.31 16.56C14.018 16.854 13.634 17 13.25 17Z" fill="white"/>
</svg>
