<svg width="24" height="24" viewBox="0 0 24 24" fill="none" xmlns="http://www.w3.org/2000/svg">
<path d="M6 3C4.35503 3 3 4.35503 3 6V8H5V6C5 5.43497 5.43497 5 6 5H8V3H6ZM16 3V5H18C18.565 5 19 5.43497 19 6V8H21V6C21 4.35503 19.645 3 18 3H16ZM7 8V11H9V8H7ZM11 8V12H10V14H11C12.0931 14 13 13.0931 13 12V8H11ZM15 8V11H17V8H15ZM9.70703 15.293L8.29297 16.707C8.29297 16.707 8.68348 17.0849 9.30273 17.3945C9.92199 17.7042 10.8333 18 12 18C13.1667 18 14.078 17.7042 14.6973 17.3945C15.3165 17.0849 15.707 16.707 15.707 16.707L14.293 15.293C14.293 15.293 14.1835 15.4151 13.8027 15.6055C13.422 15.7958 12.8333 16 12 16C11.1667 16 10.578 15.7958 10.1973 15.6055C9.81652 15.4151 9.70703 15.293 9.70703 15.293ZM3 16V18C3 19.645 4.35503 21 6 21H8V19H6C5.43497 19 5 18.565 5 18V16H3ZM19 16V18C19 18.565 18.565 19 18 19H16V21H18C19.645 21 21 19.645 21 18V16H19Z" fill="white"/>
</svg>
