<svg width="24" height="24" viewBox="0 0 24 24" fill="none" xmlns="http://www.w3.org/2000/svg">
<path opacity="0.35" d="M5.47501 7.078C6.05501 7.413 6.77201 7.306 7.26401 6.852C8.51001 5.703 10.172 5 12 5C13.978 5 15.758 5.827 17.031 7.146L16.168 8.009C15.81 8.367 16.062 8.98 16.569 8.983L20.171 9C20.63 9.002 21.002 8.63 21 8.172L20.983 4.569C20.98 4.062 20.368 3.81 20.009 4.168L19.143 5.034C17.328 3.171 14.807 2 12 2C9.36701 2 6.97701 3.021 5.19401 4.686C4.46001 5.37 4.60601 6.576 5.47501 7.078Z" fill="white"/>
<path opacity="0.35" d="M3.5 11C4.32843 11 5 10.3284 5 9.5C5 8.67157 4.32843 8 3.5 8C2.67157 8 2 8.67157 2 9.5C2 10.3284 2.67157 11 3.5 11Z" fill="white"/>
<path d="M18.525 16.922C17.945 16.587 17.228 16.694 16.736 17.148C15.49 18.297 13.828 19 12 19C10.022 19 8.24199 18.173 6.96899 16.854L7.83199 15.991C8.18999 15.633 7.93799 15.02 7.43099 15.017L3.82899 15C3.36999 14.998 2.99799 15.37 2.99999 15.828L3.01699 19.431C3.01999 19.938 3.63199 20.19 3.99099 19.832L4.85699 18.966C6.67199 20.829 9.19299 22 12 22C14.633 22 17.023 20.979 18.806 19.314C19.54 18.63 19.394 17.424 18.525 16.922Z" fill="white"/>
<path d="M20.5 16C21.3284 16 22 15.3284 22 14.5C22 13.6716 21.3284 13 20.5 13C19.6716 13 19 13.6716 19 14.5C19 15.3284 19.6716 16 20.5 16Z" fill="white"/>
</svg>
