<svg width="24" height="24" viewBox="0 0 24 24" fill="none" xmlns="http://www.w3.org/2000/svg">
<path d="M8 21C9.10457 21 10 20.1046 10 19C10 17.8954 9.10457 17 8 17C6.89543 17 6 17.8954 6 19C6 20.1046 6.89543 21 8 21Z" fill="white"/>
<path d="M17 21C18.1046 21 19 20.1046 19 19C19 17.8954 18.1046 17 17 17C15.8954 17 15 17.8954 15 19C15 20.1046 15.8954 21 17 21Z" fill="white"/>
<path opacity="0.35" d="M21.47 5.645C21.093 5.235 20.557 5 19.999 5H4.275L4.165 4.169C4 2.933 2.935 2 1.687 2H1C0.447 2 0 2.447 0 3C0 3.553 0.447 4 1 4H1.687C1.937 4 2.15 4.187 2.183 4.434L2.792 9H2C1.448 9 1 9.448 1 10C1 10.552 1.448 11 2 11H3.058L3.325 13H3C2.448 13 2 13.448 2 14C2 14.552 2.448 15 3 15H3.592L3.72 15.962C3.95 17.694 5.441 19 7.188 19H17.785C19.591 19 21.123 17.591 21.273 15.791L21.993 7.165C22.038 6.609 21.848 6.055 21.47 5.645Z" fill="white"/>
<path d="M5.00001 15H3.59201L3.72001 15.962C3.76901 16.332 3.88601 16.677 4.04101 17H5.00001C5.55201 17 6.00001 16.552 6.00001 16C6.00001 15.448 5.55201 15 5.00001 15Z" fill="white"/>
<path d="M6.00001 11H3.05801L3.32501 13H6.00001C6.55201 13 7.00001 12.552 7.00001 12C7.00001 11.448 6.55201 11 6.00001 11Z" fill="white"/>
<path d="M6.99999 7H2.52499L2.79199 9H6.99999C7.55199 9 7.99999 8.552 7.99999 8C7.99999 7.448 7.55199 7 6.99999 7Z" fill="white"/>
</svg>
