<svg width="24" height="24" viewBox="0 0 24 24" fill="none" xmlns="http://www.w3.org/2000/svg">
<path opacity="0.35" d="M12 8L14.199 10.199C14.696 10.696 15.417 10.895 16.098 10.725L21.623 9.344C22.294 9.176 22.596 8.395 22.213 7.819L21 6L12 8Z" fill="white"/>
<path d="M15.149 10.462C14.527 10.29 13.959 9.959 13.503 9.502L12 8V20.459C13.068 20.459 14.136 20.288 15.162 19.946L19.632 18.456C20.449 18.184 21 17.419 21 16.558V9.5L17.055 10.486C16.428 10.643 15.771 10.635 15.149 10.462Z" fill="white"/>
<path opacity="0.35" d="M8.838 19.946L5.052 18.684C3.826 18.275 3 17.129 3 15.838V9L12 8V20.459C10.932 20.459 9.864 20.288 8.838 19.946Z" fill="white"/>
<path d="M12.108 4.222C11.381 4.077 10.635 4.094 9.91601 4.274C7.73101 4.821 3 6 3 6L1.81 7.786C1.42 8.37 1.739 9.164 2.425 9.317L8.663 10.703C9.469 10.882 10.303 10.547 10.761 9.86L12 8L21 6L12.108 4.222Z" fill="white"/>
</svg>
