<svg width="24" height="24" viewBox="0 0 24 24" fill="none" xmlns="http://www.w3.org/2000/svg">
<path opacity="0.35" d="M11 20C15.4183 20 19 16.4183 19 12C19 7.58172 15.4183 4 11 4C6.58172 4 3 7.58172 3 12C3 16.4183 6.58172 20 11 20Z" fill="white"/>
<path d="M14.172 10.135C14.172 12.864 11.964 13.356 11.191 13.356H10.217V15.891C10.217 16.503 9.72 17 9.108 17C8.497 17 8 16.503 8 15.891V8.319C8 7.591 8.591 7 9.319 7H11.108C11.856 7 14.172 7.284 14.172 10.135ZM12.054 10.178C12.054 9.047 11.248 8.906 10.938 8.906H10.218V11.52H10.938C11.248 11.52 12.054 11.309 12.054 10.178Z" fill="white"/>
<path d="M10.5 12C10.407 12 7.593 12 7.5 12C7.224 12 7 12.224 7 12.5C7 12.776 7.224 13 7.5 13C7.593 13 10.407 13 10.5 13C10.776 13 11 12.776 11 12.5C11 12.224 10.776 12 10.5 12Z" fill="white"/>
<path d="M12.5 14C12.407 14 7.593 14 7.5 14C7.224 14 7 14.224 7 14.5C7 14.776 7.224 15 7.5 15C7.593 15 12.407 15 12.5 15C12.776 15 13 14.776 13 14.5C13 14.224 12.776 14 12.5 14Z" fill="white"/>
<path d="M14 4C13.487 4 12.986 4.053 12.5 4.145C16.201 4.848 19 8.095 19 12C19 15.905 16.201 19.152 12.5 19.855C12.986 19.947 13.487 20 14 20C18.418 20 22 16.418 22 12C22 7.582 18.418 4 14 4Z" fill="white"/>
</svg>
