<svg width="24" height="24" viewBox="0 0 24 24" fill="none" xmlns="http://www.w3.org/2000/svg">
<path opacity="0.35" d="M4 21V3C4 2.448 4.448 2 5 2H17C18.657 2 20 3.343 20 5V19C20 20.657 18.657 22 17 22H5C4.448 22 4 21.552 4 21Z" fill="white"/>
<path d="M12 12C13.6569 12 15 10.6569 15 9C15 7.34315 13.6569 6 12 6C10.3431 6 9 7.34315 9 9C9 10.6569 10.3431 12 12 12Z" fill="white"/>
<path d="M15 14H9C7.895 14 7 14.895 7 16C7 17.105 7.895 18 9 18H15C16.105 18 17 17.105 17 16C17 14.895 16.105 14 15 14Z" fill="white"/>
<path d="M4 15C3.846 15 3.693 15 3.5 15C2.672 15 2 15.672 2 16.5C2 17.328 2.672 18 3.5 18C3.693 18 3.846 18 4 18V15Z" fill="white"/>
<path d="M4 6C3.846 6 3.693 6 3.5 6C2.672 6 2 6.672 2 7.5C2 8.328 2.672 9 3.5 9C3.693 9 3.846 9 4 9V6Z" fill="white"/>
</svg>
