<svg width="24" height="24" viewBox="0 0 24 24" fill="none" xmlns="http://www.w3.org/2000/svg">
<path opacity="0.35" d="M12 22C17.5228 22 22 17.5228 22 12C22 6.47715 17.5228 2 12 2C6.47715 2 2 6.47715 2 12C2 17.5228 6.47715 22 12 22Z" fill="white"/>
<path d="M14.812 16.215L7.78499 9.18801C7.40099 8.80401 7.40099 8.18001 7.78499 7.79601L7.79599 7.78501C8.17999 7.40101 8.80399 7.40101 9.18799 7.78501L16.215 14.812C16.599 15.196 16.599 15.82 16.215 16.204L16.204 16.215C15.82 16.599 15.196 16.599 14.812 16.215Z" fill="white"/>
<path d="M7.78499 14.812L14.812 7.78501C15.196 7.40101 15.82 7.40101 16.204 7.78501L16.215 7.79601C16.599 8.18001 16.599 8.80401 16.215 9.18801L9.18799 16.215C8.80399 16.599 8.17999 16.599 7.79599 16.215L7.78499 16.204C7.40099 15.82 7.40099 15.196 7.78499 14.812Z" fill="white"/>
</svg>
