<svg width="24" height="24" viewBox="0 0 24 24" fill="none" xmlns="http://www.w3.org/2000/svg">
<path opacity="0.35" d="M12 22C17.5228 22 22 17.5228 22 12C22 6.47715 17.5228 2 12 2C6.47715 2 2 6.47715 2 12C2 17.5228 6.47715 22 12 22Z" fill="white"/>
<path d="M10.75 7C11.134 7 11.518 7.146 11.811 7.439L15.311 10.939C15.897 11.524 15.897 12.475 15.311 13.06L11.811 16.56C11.225 17.146 10.276 17.146 9.69 16.56C9.104 15.975 9.104 15.024 9.69 14.439L12.129 12L9.689 9.561C9.103 8.976 9.103 8.025 9.689 7.44C9.982 7.146 10.366 7 10.75 7Z" fill="white"/>
</svg>
