<svg width="24" height="24" viewBox="0 0 24 24" fill="none" xmlns="http://www.w3.org/2000/svg">
<path opacity="0.35" d="M18 22H6C4.343 22 3 20.657 3 19V11C3 9.343 4.343 8 6 8H18C19.657 8 21 9.343 21 11V19C21 20.657 19.657 22 18 22Z" fill="white"/>
<path d="M12 13C10.895 13 10 13.895 10 15C10 16.105 10.895 17 12 17C13.105 17 14 16.105 14 15C14 13.895 13.105 13 12 13Z" fill="white"/>
<path d="M15.986 5.014L16.066 4.934C16.441 4.559 16.442 3.939 16.051 3.58C14.984 2.6 13.563 2 12 2C8.686 2 6 4.686 6 8H8C8 5.791 9.791 4 12 4C13.02 4 13.949 4.384 14.654 5.013C15.042 5.359 15.618 5.382 15.986 5.014Z" fill="white"/>
</svg>
