<svg width="24" height="24" viewBox="0 0 24 24" fill="none" xmlns="http://www.w3.org/2000/svg">
<path opacity="0.35" d="M19 4C19 2.343 17.657 1 16 1H8C6.343 1 5 2.343 5 4V20C5 21.657 6.343 23 8 23H16C17.657 23 19 21.657 19 20V4Z" fill="white"/>
<path d="M12 21C12.8284 21 13.5 20.3284 13.5 19.5C13.5 18.6716 12.8284 18 12 18C11.1716 18 10.5 18.6716 10.5 19.5C10.5 20.3284 11.1716 21 12 21Z" fill="white"/>
<path d="M11 14C10.744 14 10.488 13.902 10.293 13.707L7.293 10.707C6.902 10.316 6.902 9.68401 7.293 9.29301C7.684 8.90201 8.316 8.90201 8.707 9.29301L11 11.586L15.293 7.29301C15.684 6.90201 16.316 6.90201 16.707 7.29301C17.098 7.68401 17.098 8.31601 16.707 8.70701L11.707 13.707C11.512 13.902 11.256 14 11 14Z" fill="white"/>
</svg>
