<svg width="24" height="24" viewBox="0 0 24 24" fill="none" xmlns="http://www.w3.org/2000/svg">
<path opacity="0.35" d="M19 20H5C3.343 20 2 18.657 2 17V7C2 5.343 3.343 4 5 4H19C20.657 4 22 5.343 22 7V17C22 18.657 20.657 20 19 20Z" fill="white"/>
<path d="M17 13.683C17 14.156 16.739 16 14.478 16C12.278 16 12 14.173 12 13.683C12 12.25 13.051 11.868 13.202 11.811V11.789C12.863 11.653 12.153 11.246 12.153 10.112C12.153 9.73499 12.362 8.01199 14.479 8.01199C16.596 8.01199 16.85 9.69199 16.85 10.112C16.85 11.237 16.143 11.653 15.811 11.789V11.811C15.961 11.869 17 12.25 17 13.683ZM15.258 13.586C15.258 13.262 15.125 12.483 14.478 12.483C13.831 12.483 13.699 13.262 13.699 13.586C13.699 13.904 13.812 14.679 14.478 14.679C15.144 14.679 15.258 13.904 15.258 13.586ZM15.193 10.232C15.193 9.94999 15.1 9.25799 14.479 9.25799C13.858 9.25799 13.776 9.94999 13.776 10.232C13.776 10.491 13.907 11.228 14.479 11.228C15.051 11.228 15.193 10.491 15.193 10.232Z" fill="white"/>
<path d="M8.909 15.108V10.099L8.433 10.458C8.051 10.747 7.501 10.634 7.263 10.218C7.062 9.86699 7.157 9.41999 7.483 9.18099L8.786 8.22699C8.99 8.07699 9.237 7.99699 9.49 7.99699C10.148 7.99699 10.682 8.53099 10.682 9.18899V15.108C10.682 15.598 10.285 15.995 9.795 15.995C9.307 15.995 8.909 15.598 8.909 15.108Z" fill="white"/>
</svg>
