<svg width="24" height="24" viewBox="0 0 24 24" fill="none" xmlns="http://www.w3.org/2000/svg">
<path opacity="0.35" d="M18 21H6C4.343 21 3 19.657 3 18V6C3 4.343 4.343 3 6 3H18C19.657 3 21 4.343 21 6V18C21 19.657 19.657 21 18 21Z" fill="white"/>
<path d="M17 11H13V7C13 6.448 12.552 6 12 6C11.448 6 11 6.448 11 7V11H7C6.448 11 6 11.448 6 12C6 12.552 6.448 13 7 13H11V17C11 17.552 11.448 18 12 18C12.552 18 13 17.552 13 17V13H17C17.552 13 18 12.552 18 12C18 11.448 17.552 11 17 11Z" fill="white"/>
</svg>
