<svg width="24" height="24" viewBox="0 0 24 24" fill="none" xmlns="http://www.w3.org/2000/svg">
<path opacity="0.35" d="M12 22C17.5228 22 22 17.5228 22 12C22 6.47715 17.5228 2 12 2C6.47715 2 2 6.47715 2 12C2 17.5228 6.47715 22 12 22Z" fill="white"/>
<path d="M11.883 13.973H11.877C11.207 13.973 10.69 13.368 10.805 12.708C11.155 10.695 12.722 10.625 12.722 9.375C12.722 9.028 12.662 8.251 11.826 8.251C11.374 8.251 11.108 8.54 10.953 8.848C10.744 9.265 10.262 9.47 9.803 9.389C9.107 9.265 8.68 8.519 8.975 7.877C9.397 6.96 10.261 6 11.972 6C14.748 6 15.12 8.174 15.12 9.196C15.12 11.612 13.321 11.702 12.948 13.094C12.813 13.596 12.403 13.973 11.883 13.973ZM13.325 16.533C13.325 16.945 13.198 17.293 12.943 17.576C12.687 17.858 12.352 18 11.94 18C11.526 18 11.192 17.858 10.937 17.576C10.682 17.293 10.553 16.945 10.553 16.533C10.553 16.13 10.682 15.783 10.937 15.488C11.192 15.195 11.526 15.049 11.94 15.049C12.352 15.049 12.687 15.195 12.943 15.488C13.198 15.783 13.325 16.131 13.325 16.533Z" fill="white"/>
</svg>
