<svg width="24" height="24" viewBox="0 0 24 24" fill="none" xmlns="http://www.w3.org/2000/svg">
<path opacity="0.35" d="M12 22C17.5228 22 22 17.5228 22 12C22 6.47715 17.5228 2 12 2C6.47715 2 2 6.47715 2 12C2 17.5228 6.47715 22 12 22Z" fill="white"/>
<path d="M13 15.305C13 15.922 13.744 16.232 14.182 15.798L17.296 12.713C17.692 12.32 17.692 11.68 17.296 11.287L14.182 8.20199C13.744 7.76799 13 8.07899 13 8.69499V15.305Z" fill="white"/>
<path d="M14 11C14 11 7.348 11 7 11C6.448 11 6 11.448 6 12C6 12.552 6.448 13 7 13C7.348 13 14 13 14 13V11Z" fill="white"/>
</svg>
