<svg width="24" height="24" viewBox="0 0 24 24" fill="none" xmlns="http://www.w3.org/2000/svg">
<path opacity="0.35" d="M4 7.70813C4 6.07251 4.99427 4.5945 6.55348 4.10042C8.22958 3.56929 10.3994 3 12 3C13.6006 3 15.7704 3.56929 17.4465 4.10042C19.0057 4.5945 20 6.07251 20 7.70813V16C20 18.2091 18.2091 20 16 20H8C5.79086 20 4 18.2091 4 16V7.70813Z" fill="white"/>
<path d="M15.672 10.135C15.672 12.864 13.464 13.356 12.691 13.356H11.717V15.891C11.717 16.503 11.22 17 10.608 17C9.997 17 9.5 16.503 9.5 15.891V8.319C9.5 7.591 10.091 7 10.819 7H12.608C13.356 7 15.672 7.284 15.672 10.135ZM13.554 10.178C13.554 9.047 12.748 8.906 12.438 8.906H11.718V11.52H12.438C12.748 11.52 13.554 11.309 13.554 10.178Z" fill="white"/>
<path d="M12 12C11.907 12 9.093 12 9 12C8.724 12 8.5 12.224 8.5 12.5C8.5 12.776 8.724 13 9 13C9.093 13 11.907 13 12 13C12.276 13 12.5 12.776 12.5 12.5C12.5 12.224 12.276 12 12 12Z" fill="white"/>
<path d="M14 14C13.907 14 9.093 14 9 14C8.724 14 8.5 14.224 8.5 14.5C8.5 14.776 8.724 15 9 15C9.093 15 13.907 15 14 15C14.276 15 14.5 14.776 14.5 14.5C14.5 14.224 14.276 14 14 14Z" fill="white"/>
</svg>
