<svg width="24" height="24" viewBox="0 0 24 24" fill="none" xmlns="http://www.w3.org/2000/svg">
<path d="M21.414 18.586C21.127 18.299 19.472 16.644 18.613 15.785C17.894 16.927 16.927 17.894 15.785 18.613C16.644 19.472 18.299 21.127 18.586 21.414C19.367 22.195 20.633 22.195 21.414 21.414C22.195 20.633 22.195 19.367 21.414 18.586Z" fill="white"/>
<path opacity="0.35" d="M11 20C15.9706 20 20 15.9706 20 11C20 6.02944 15.9706 2 11 2C6.02944 2 2 6.02944 2 11C2 15.9706 6.02944 20 11 20Z" fill="white"/>
</svg>
