<svg width="24" height="24" viewBox="0 0 24 24" fill="none" xmlns="http://www.w3.org/2000/svg">
<path opacity="0.35" d="M12.0005 2C6.47751 2 2.00051 6.477 2.00051 12C2.00051 13.592 2.38251 15.091 3.04351 16.427L2.03851 20.446C1.80951 21.361 2.63851 22.191 3.55451 21.962L7.57351 20.957C8.90951 21.618 10.4085 22 12.0005 22C17.5235 22 22.0005 17.523 22.0005 12C22.0005 6.477 17.5235 2 12.0005 2Z" fill="white"/>
<path d="M12 13.5C12.8284 13.5 13.5 12.8284 13.5 12C13.5 11.1716 12.8284 10.5 12 10.5C11.1716 10.5 10.5 11.1716 10.5 12C10.5 12.8284 11.1716 13.5 12 13.5Z" fill="white"/>
<path d="M17 13.5C17.8284 13.5 18.5 12.8284 18.5 12C18.5 11.1716 17.8284 10.5 17 10.5C16.1716 10.5 15.5 11.1716 15.5 12C15.5 12.8284 16.1716 13.5 17 13.5Z" fill="white"/>
<path d="M7 13.5C7.82843 13.5 8.5 12.8284 8.5 12C8.5 11.1716 7.82843 10.5 7 10.5C6.17157 10.5 5.5 11.1716 5.5 12C5.5 12.8284 6.17157 13.5 7 13.5Z" fill="white"/>
</svg>
