<svg width="24" height="24" viewBox="0 0 24 24" fill="none" xmlns="http://www.w3.org/2000/svg">
<path opacity="0.35" d="M17 22H7C5.343 22 4 20.657 4 19V5C4 3.343 5.343 2 7 2H17C18.657 2 20 3.343 20 5V19C20 20.657 18.657 22 17 22Z" fill="white"/>
<path d="M12 12C13.1046 12 14 11.1046 14 10C14 8.89543 13.1046 8 12 8C10.8954 8 10 8.89543 10 10C10 11.1046 10.8954 12 12 12Z" fill="white"/>
<path d="M14.5 14H9.5C8.672 14 8 14.672 8 15.5C8 16.328 8.672 17 9.5 17H14.5C15.328 17 16 16.328 16 15.5C16 14.672 15.328 14 14.5 14Z" fill="white"/>
<path d="M10 2V3C10 4.105 10.895 5 12 5C13.105 5 14 4.105 14 3V2H10Z" fill="white"/>
</svg>
