<svg width="24" height="24" viewBox="0 0 24 24" fill="none" xmlns="http://www.w3.org/2000/svg">
<g clip-path="url(#clip0_1_369)">
<path opacity="0.35" d="M21 6H5.802C4.912 6 4.067 6.395 3.497 7.079L0.464 10.719C-0.154 11.461 -0.154 12.538 0.464 13.28L3.497 16.92C4.067 17.605 4.911 18 5.802 18H21C22.657 18 24 16.657 24 15V9C24 7.343 22.657 6 21 6Z" fill="white"/>
<path d="M18.5 13.5C19.3284 13.5 20 12.8284 20 12C20 11.1716 19.3284 10.5 18.5 10.5C17.6716 10.5 17 11.1716 17 12C17 12.8284 17.6716 13.5 18.5 13.5Z" fill="white"/>
<path d="M13 13.5C13.8284 13.5 14.5 12.8284 14.5 12C14.5 11.1716 13.8284 10.5 13 10.5C12.1716 10.5 11.5 11.1716 11.5 12C11.5 12.8284 12.1716 13.5 13 13.5Z" fill="white"/>
<path d="M7.5 13.5C8.32843 13.5 9 12.8284 9 12C9 11.1716 8.32843 10.5 7.5 10.5C6.67157 10.5 6 11.1716 6 12C6 12.8284 6.67157 13.5 7.5 13.5Z" fill="white"/>
</g>
<defs>
<clipPath id="clip0_1_369">
<rect width="24" height="24" fill="white"/>
</clipPath>
</defs>
</svg>
