<svg width="24" height="24" viewBox="0 0 24 24" fill="none" xmlns="http://www.w3.org/2000/svg">
<path opacity="0.35" d="M12 22C17.5228 22 22 17.5228 22 12C22 6.47715 17.5228 2 12 2C6.47715 2 2 6.47715 2 12C2 17.5228 6.47715 22 12 22Z" fill="white"/>
<path d="M8 13C8 13 16.652 13 17 13C17.552 13 18 12.552 18 12C18 11.448 17.552 11 17 11C16.652 11 8 11 8 11V13Z" fill="white"/>
<path d="M12 17C11.744 17 11.488 16.902 11.293 16.707L7.29301 12.707C6.90201 12.316 6.90201 11.684 7.29301 11.293L11.293 7.29301C11.684 6.90201 12.316 6.90201 12.707 7.29301C13.098 7.68401 13.098 8.31601 12.707 8.70701L9.41401 12L12.707 15.293C13.098 15.684 13.098 16.316 12.707 16.707C12.512 16.902 12.256 17 12 17Z" fill="white"/>
</svg>
