<svg width="24" height="24" viewBox="0 0 24 24" fill="none" xmlns="http://www.w3.org/2000/svg">
<path opacity="0.35" d="M20 12C20 11.261 20.405 10.624 21 10.277V6C21 4.343 19.657 3 18 3H13.723C13.376 3.595 12.738 4 12 4C11.262 4 10.624 3.595 10.277 3H6C4.343 3 3 4.343 3 6V10.277C3.595 10.624 4 11.261 4 12C4 12.738 3.595 13.376 3 13.723V18C3 19.657 4.343 21 6 21H10.277C10.623 20.405 11.261 20 12 20C12.739 20 13.376 20.405 13.723 21H18C19.657 21 21 19.657 21 18V13.723C20.405 13.376 20 12.738 20 12Z" fill="white"/>
<path d="M11 13C10.448 13 10 12.552 10 12C10 11.448 10.448 11 11 11V8C11 7.448 11.448 7 12 7C12.552 7 13 7.448 13 8V11C13 12.103 12.103 13 11 13Z" fill="white"/>
<path d="M16 11C15.448 11 15 10.552 15 10V8C15 7.448 15.448 7 16 7C16.552 7 17 7.448 17 8V10C17 10.552 16.552 11 16 11Z" fill="white"/>
<path d="M8 11C7.448 11 7 10.552 7 10V8C7 7.448 7.448 7 8 7C8.552 7 9 7.448 9 8V10C9 10.552 8.552 11 8 11Z" fill="white"/>
<path d="M12 17C9.91 17 8.611 15.772 8.557 15.72C8.159 15.337 8.147 14.704 8.53 14.306C8.911 13.91 9.54 13.896 9.937 14.273C9.982 14.314 10.751 15 12 15C13.26 15 14.032 14.302 14.064 14.272C14.467 13.9 15.099 13.919 15.474 14.318C15.85 14.717 15.839 15.34 15.444 15.72C15.389 15.772 14.09 17 12 17Z" fill="white"/>
</svg>
